# xmcd
#
# Track frame offsets: 
#        150
#        16462
#        33747
#        49080
#        75147
#        91730
#        115027
#        132987
#        148222
#        165060
#        176442
#        199260
#        218887
#        233535
#        252922
#        265950
#        281527
#        310160
#
# Disc length: 4324 seconds
#
# Revision: 0
# Processed by: cddbd v1.4PL0 Copyright (c) Steve Scherf et al.
# Submitted via: ExactAudioCopy v0.90a11
#
DISCID=ec10e212
DTITLE=Green On Red - Rock`n Roll Disease
DYEAR=1900
DGENRE=
TTITLE0=This time around
TTITLE1=Two Lovers (Waitin' To Die)
TTITLE2=Keith Can't Read
TTITLE3=You Couldn't Ger Arrested
TTITLE4=Little Things In Life
TTITLE5=Hector's Out
TTITLE6=Morning Blue
TTITLE7=To Much Fun
TTITLE8=She's All Mine
TTITLE9=Way Back Home
TTITLE10=Tenderloin
TTITLE11=Good Patient Woman
TTITLE12=Frozen In My Headlights
TTITLE13=The Quarter
TTITLE14=We Had It All
TTITLE15=16 Ways (Live)
TTITLE16=Are You Shure Hank Done It This
TTITLE17=Rock 'n' Roll Desease
EXTD=
EXTT0=
EXTT1=
EXTT2=
EXTT3=
EXTT4=
EXTT5=
EXTT6=
EXTT7=
EXTT8=
EXTT9=
EXTT10=
EXTT11=
EXTT12=
EXTT13=
EXTT14=
EXTT15=
EXTT16=
EXTT17=
PLAYORDER=
